# xmcd CD database file
#
# Track frame offsets:
#	180
#	12977
#	22970
#	40277
#	51872
#	62520
#	71495
#	84180
#	97165
#	108900
#	118997
#	129835
#	145060
#	155837
#	168650
#	176470
#	185162
#	196050
#	196515
#	207630
#
# Disc length: 2927 seconds
#
# Revision: 0
# Processed by: cddbd v1.5.1PL0 Copyright (c) Steve Scherf et al.
# Submitted via: CDex 1.51
#
DISCID=170b6d14
DTITLE=20 grands succès - Country Music Volume 1
DYEAR=1995
DGENRE=Country
TTITLE0=Folson Prison Blues
TTITLE1=Release me
TTITLE2=Something burning
TTITLE3=Crying
TTITLE4=Gotta lot of rhythm
TTITLE5=Jonsey
TTITLE6=The happy hours
TTITLE7=Daddy
TTITLE8=Some other time
TTITLE9=Hey porter
TTITLE10=Honky tonk angels
TTITLE11=For the good time
TTITLE12=Dream baby
TTITLE13=Yes I understand
TTITLE14=Jambalaya
TTITLE15=Blues is the way I feel
TTITLE16=Wishful thinking
TTITLE17=I hope so
TTITLE18=Oh lonesome me
TTITLE19=Two little orphans
EXTD=YEAR: 1995
EXTT0=
EXTT1=
EXTT2=
EXTT3=
EXTT4=
EXTT5=
EXTT6=
EXTT7=
EXTT8=
EXTT9=
EXTT10=
EXTT11=
EXTT12=
EXTT13=
EXTT14=
EXTT15=
EXTT16=
EXTT17=
EXTT18=
EXTT19=
PLAYORDER=
